# xmcd
#
# Track frame offsets: 
#        150
#        13235
#        31957
#        49692
#        59507
#        76412
#        90920
#        100440
#        122062
#        138720
#        149632
#        159690
#        178415
#        191430
#
# Disc length: 2742 seconds
#
# Revision: 15
# Processed by: cddbd v1.5.2PL0 Copyright (c) Steve Scherf et al.
# Submitted via: ExactAudioCopyFreeDBPlugin 1.0
#
DISCID=cb0ab40e
DTITLE=Junior Wells' Chicago Blues Band - Hoodoo Man Blues
DYEAR=1965
DGENRE=Blues
TTITLE0=Snatch It Back And Hold It
TTITLE1=Ships On The Ocean
TTITLE2=Good Morning Schoolgirl
TTITLE3=Hound Dog
TTITLE4=In The Wee Hours
TTITLE5=Hey Lawdy Mama
TTITLE6=Hoodoo Man Blues
TTITLE7=Early In The Morning
TTITLE8=We're Ready
TTITLE9=You Don't Love Me Baby
TTITLE10=Chitlin Con Carne
TTITLE11=Yonder Wall
TTITLE12=Hoodoo Man Blues, alternate
TTITLE13=Chitlin Con Carne, alternate
EXTD=The short buzz that appears on Hoodoo Man Blues, alternate is due
EXTD=to a technical problem from t
EXTT0=
EXTT1=
EXTT2=
EXTT3=
EXTT4=
EXTT5=
EXTT6=
EXTT7=
EXTT8=
EXTT9=
EXTT10=
EXTT11=
EXTT12=
EXTT13=
PLAYORDER=
